<?xml version="1.0" standalone="no"?>
<!DOCTYPE svg PUBLIC "-//W3C//DTD SVG 20010904//EN"
 "http://www.w3.org/TR/2001/REC-SVG-20010904/DTD/svg10.dtd">
<svg version="1.0" xmlns="http://www.w3.org/2000/svg"
 width="800.000000pt" height="1080.000000pt" viewBox="0 0 800.000000 1080.000000"
 preserveAspectRatio="xMidYMid meet">

<g transform="translate(0.000000,1080.000000) scale(0.100000,-0.100000)"
fill="#000000" stroke="none">
<path d="M6546 7219 c-3 -19 -12 -99 -21 -179 -9 -80 -20 -172 -25 -205 -5
-33 -17 -121 -25 -195 -9 -74 -20 -166 -26 -205 -11 -83 -65 -512 -84 -675 -8
-63 -26 -205 -40 -315 -14 -110 -30 -238 -35 -285 -5 -47 -17 -137 -26 -200
-8 -63 -20 -149 -24 -190 -5 -41 -16 -133 -24 -205 -9 -71 -16 -131 -16 -132
0 -2 -6 -3 -14 -3 -8 0 -23 15 -34 33 -34 57 -277 340 -358 417 -128 122 -518
376 -802 522 l-134 68 -91 0 c-113 0 -144 -13 -248 -101 -42 -35 -96 -78 -120
-95 -29 -20 -53 -49 -72 -86 -56 -111 -163 -105 -198 10 -10 35 -9 45 3 64 28
43 142 90 269 113 42 7 93 21 113 30 44 21 92 77 107 125 6 19 20 55 31 79 52
116 58 140 58 237 0 61 -5 107 -15 131 -38 91 -216 293 -288 327 -33 15 -64
18 -204 16 -160 -1 -203 -8 -203 -35 0 -6 -16 -19 -35 -29 -39 -21 -115 -88
-115 -102 -1 -5 -17 -19 -36 -32 -29 -18 -59 -24 -156 -32 -66 -6 -123 -12
-127 -14 -18 -11 -266 -57 -391 -72 -64 -8 -140 -27 -140 -35 0 -5 18 -12 40
-15 22 -4 43 -11 46 -15 3 -5 23 -9 45 -9 22 0 70 -4 107 -10 37 -5 96 -14
132 -19 36 -5 89 -16 117 -25 80 -23 294 -45 526 -55 225 -10 257 -18 257 -64
0 -21 -36 -67 -53 -67 -3 0 -32 16 -64 35 -46 28 -68 35 -108 35 -62 -1 -80
-10 -157 -85 -75 -73 -109 -143 -137 -285 -24 -116 -25 -151 -11 -253 6 -40
15 -106 21 -147 5 -41 19 -103 30 -137 20 -62 96 -185 168 -271 52 -63 155
-228 204 -327 80 -161 155 -251 357 -426 59 -51 64 -58 66 -100 4 -75 23 -434
34 -644 21 -403 40 -775 50 -975 6 -113 15 -275 20 -360 6 -85 15 -263 21
-395 5 -132 12 -250 15 -262 8 -30 -24 -45 -87 -41 l-51 3 -53 160 c-123 378
-262 804 -323 990 -35 110 -68 209 -72 220 -5 11 -20 58 -35 105 -15 47 -33
99 -40 115 -15 33 -90 273 -100 320 -4 17 -11 55 -15 85 -5 30 -27 161 -50
290 -22 129 -45 260 -50 290 -4 30 -23 136 -40 235 -17 99 -36 205 -40 235
-11 66 -75 441 -96 560 -8 47 -19 110 -24 140 -5 30 -23 136 -40 235 -18 99
-35 211 -40 248 -9 75 -25 107 -34 66 -18 -85 -12 -148 50 -514 8 -49 19 -115
24 -145 30 -184 42 -250 50 -295 5 -27 37 -216 70 -419 33 -203 63 -372 65
-376 2 -3 7 -58 10 -121 3 -67 14 -139 25 -174 27 -87 33 -120 105 -560 36
-220 67 -413 70 -430 3 -16 12 -68 21 -115 8 -47 19 -112 24 -145 5 -33 27
-168 50 -300 22 -132 45 -269 51 -305 9 -65 22 -133 41 -223 14 -67 -3 -81
-24 -20 -9 27 -23 77 -33 113 -9 36 -21 76 -25 90 -4 14 -16 52 -25 85 -9 33
-20 71 -25 85 -4 14 -13 43 -19 65 -19 70 -91 318 -105 365 -14 44 -37 125
-71 245 -10 33 -28 96 -41 140 -23 76 -87 298 -120 415 -9 30 -24 82 -34 115
-10 33 -25 85 -34 115 -45 156 -186 643 -200 693 -9 31 -21 57 -26 57 -5 0
-12 -20 -15 -44 -6 -36 3 -81 50 -248 31 -111 61 -216 66 -233 5 -16 20 -70
34 -120 14 -49 32 -112 40 -140 8 -27 26 -90 40 -140 14 -49 29 -103 34 -120
5 -16 40 -138 76 -270 74 -264 285 -1006 360 -1265 26 -91 48 -176 49 -190 1
-24 -2 -25 -94 -36 -146 -18 -230 -32 -290 -48 -68 -18 -75 -13 -88 69 -5 33
-29 168 -52 300 -23 132 -45 265 -50 295 -5 30 -21 121 -35 202 -14 82 -36
214 -50 295 -14 82 -32 186 -40 233 -7 47 -26 153 -40 235 -15 83 -30 175 -35
205 -5 30 -17 107 -28 170 -11 63 -22 129 -25 145 -3 17 -24 138 -47 270 -22
132 -45 267 -50 300 -5 33 -16 96 -25 140 -8 44 -20 107 -25 140 -9 58 -31
187 -140 825 -28 162 -55 320 -60 350 -25 155 -70 407 -75 423 -15 37 -25 2
-25 -83 0 -77 49 -413 110 -750 5 -30 15 -82 21 -115 6 -33 14 -87 19 -120 5
-33 23 -141 40 -240 17 -99 35 -207 40 -240 13 -86 38 -237 55 -330 8 -44 16
-96 19 -115 2 -19 14 -89 25 -155 11 -66 27 -160 35 -210 9 -49 23 -133 32
-185 9 -52 23 -135 30 -185 24 -150 31 -188 89 -530 30 -181 60 -357 65 -390
5 -33 21 -127 35 -210 14 -82 30 -177 36 -210 5 -33 23 -141 39 -240 46 -269
52 -317 43 -325 -4 -4 -44 -22 -88 -40 -141 -55 -579 -294 -724 -394 -109 -74
-198 -167 -280 -291 -40 -61 -84 -121 -97 -136 -13 -14 -24 -28 -24 -32 0 -4
1262 -7 2805 -7 l2805 0 0 771 0 771 -72 -4 -73 -3 -6 1720 c-5 1515 -7 1728
-21 1785 -9 36 -23 97 -32 135 -9 39 -23 95 -31 126 -8 30 -12 64 -9 75 2 10
11 132 18 270 11 198 11 261 2 304 -18 79 -33 74 -40 -12 -9 -116 -26 -379
-36 -563 -5 -93 -14 -235 -20 -315 -15 -213 -39 -572 -55 -845 -8 -132 -23
-377 -34 -545 -11 -168 -25 -397 -31 -510 -7 -113 -14 -216 -17 -230 -8 -41
-21 -4 -49 142 -14 73 -36 185 -49 248 -33 153 -98 475 -122 600 -3 14 -43
214 -89 446 -54 271 -84 444 -84 486 0 45 -5 69 -14 77 -8 7 -18 27 -21 44 -3
18 -13 60 -21 95 -8 35 -19 87 -24 115 -5 29 -22 117 -39 197 -16 80 -36 183
-45 230 -24 125 -26 131 -36 125 -4 -3 -11 -33 -15 -68 -5 -49 0 -94 23 -212
17 -83 42 -213 57 -290 14 -77 31 -160 37 -185 5 -25 14 -70 18 -100 5 -30 18
-98 30 -150 25 -108 25 -88 -9 -830 -19 -423 -26 -594 -52 -1230 -7 -151 -13
-277 -16 -279 -10 -12 -23 21 -32 79 -11 76 -211 1076 -232 1159 -5 22 -3 51
6 85 8 28 26 94 41 146 14 52 30 111 34 130 23 101 53 217 61 232 5 10 9 28 9
40 -1 34 -15 5 -31 -62 -7 -30 -16 -59 -20 -65 -4 -5 -10 -26 -14 -45 -4 -19
-18 -71 -31 -115 -40 -131 -42 -139 -49 -173 -9 -43 -39 -41 -43 3 -1 17 -9
62 -17 100 -63 292 -109 545 -115 625 -5 66 -17 122 -39 185 -17 50 -36 122
-42 160 -16 113 -36 127 -46 33 -5 -49 8 -146 37 -273 5 -22 23 -112 40 -200
16 -88 34 -180 40 -205 8 -40 14 -144 35 -607 4 -85 3 -123 -5 -123 -6 0 -13
8 -16 18 -3 9 -28 74 -55 144 -27 69 -49 129 -49 132 0 3 -11 29 -24 58 -13
29 -31 73 -41 98 -9 25 -26 65 -36 90 -16 40 -54 194 -73 303 -9 49 -26 48
-26 -2 0 -47 -14 -60 -31 -30 -9 18 -8 37 4 93 9 39 21 130 26 201 6 72 22
220 36 330 14 110 30 238 35 285 14 124 49 402 61 495 6 44 15 116 19 160 5
44 21 172 35 285 14 113 32 259 40 325 33 288 56 475 66 535 8 48 8 85 0 140
-14 86 -27 109 -35 59z m1222 -3837 c1 -963 -1 -1601 -7 -1598 -8 5 -25 75
-52 216 -5 30 -17 87 -25 125 -8 39 -32 158 -53 265 -38 191 -38 198 -30 330
4 74 15 261 23 415 9 154 20 345 26 425 5 80 14 226 20 325 6 99 14 250 20
335 5 85 16 290 25 455 9 165 19 311 22 325 4 24 5 24 16 5 9 -15 13 -420 15
-1623z m-589 953 c15 -85 135 -702 156 -800 8 -38 42 -212 75 -385 34 -173 73
-371 87 -440 25 -123 25 -127 14 -320 -7 -107 -16 -244 -21 -305 -5 -60 -14
-207 -21 -325 -6 -118 -14 -233 -18 -255 l-6 -39 -70 -13 c-39 -8 -88 -18
-109 -22 -48 -11 -65 -5 -71 23 -2 11 -16 84 -30 161 -15 77 -31 156 -35 175
-5 19 -21 96 -35 170 -22 112 -26 151 -21 230 3 52 11 255 16 450 5 195 14
490 20 655 5 165 15 476 20 690 6 215 13 401 16 414 8 36 19 14 33 -64z m-515
-522 c29 -143 37 -211 31 -254 -4 -31 -12 -49 -20 -49 -8 0 -16 3 -18 8 -11
17 -19 322 -9 322 6 0 13 -12 16 -27z m-1998 -114 c76 -85 283 -227 389 -266
68 -26 80 -34 87 -59 17 -62 44 -324 58 -552 7 -128 12 -159 30 -189 20 -34
20 -42 11 -127 -6 -50 -15 -149 -21 -221 -15 -181 -37 -387 -65 -610 -13 -104
-26 -217 -30 -250 -4 -33 -11 -68 -16 -77 -5 -9 -46 -36 -90 -59 -92 -48 -151
-94 -192 -150 -16 -21 -32 -39 -37 -39 -5 0 -10 48 -13 108 -2 59 -12 215 -21
347 -33 485 -36 539 -46 727 -6 106 -15 229 -20 272 -6 44 -10 111 -10 150 0
65 -5 153 -30 486 -6 74 -15 214 -20 310 -5 96 -12 185 -16 198 -5 17 -2 22
13 22 11 0 28 -10 39 -21z m2081 -325 c12 -60 27 -131 33 -159 11 -55 45 -225
84 -435 15 -74 53 -271 86 -438 l60 -302 -11 -313 c-6 -171 -15 -322 -20 -334
-5 -14 -17 -23 -31 -23 -12 0 -48 -5 -80 -12 -49 -10 -61 -10 -67 1 -5 7 -9
61 -10 119 -1 58 -4 108 -6 112 -2 3 -11 120 -20 260 -8 140 -22 350 -30 465
-14 205 -30 466 -30 495 0 8 14 17 32 21 59 12 65 24 58 103 -10 106 -48 251
-90 340 -26 57 -35 87 -30 105 3 14 9 40 11 56 16 89 35 70 61 -61z m-951 -58
c16 -2 78 -27 137 -55 l107 -51 0 -40 c0 -21 -4 -61 -10 -87 -5 -26 -14 -91
-20 -143 -9 -86 -32 -275 -60 -485 -25 -192 -52 -406 -60 -481 -5 -44 -13
-119 -19 -165 -21 -156 -30 -224 -46 -359 -9 -74 -22 -166 -28 -205 l-12 -70
-73 -14 c-84 -16 -110 -9 -139 36 -16 24 -18 50 -17 233 2 190 13 494 33 905
5 94 16 204 25 245 20 94 20 163 -1 265 -32 159 -27 428 9 472 9 11 72 11 174
-1z m-391 -211 c1 -113 6 -165 19 -210 15 -48 17 -77 12 -154 -4 -53 -11 -100
-16 -105 -18 -18 -11 -78 13 -110 44 -59 48 -96 38 -348 -6 -128 -13 -361 -16
-518 -9 -374 -11 -380 -176 -415 -108 -22 -121 -21 -82 10 45 36 47 48 92 525
12 118 25 258 31 310 36 338 43 501 32 658 -7 87 -12 237 -12 335 l0 178 32
-3 31 -3 2 -150z m803 22 c29 -18 69 -45 88 -60 l34 -28 0 -383 c0 -318 -3
-391 -15 -432 -17 -53 -33 -108 -64 -219 -11 -38 -38 -135 -61 -215 -23 -80
-45 -158 -49 -175 -4 -16 -18 -64 -30 -105 -24 -79 -44 -148 -62 -215 -17 -62
-28 -85 -41 -89 -75 -20 -121 -27 -130 -18 -6 6 -6 36 1 88 6 44 22 176 36
294 13 118 29 249 35 290 5 41 14 118 20 170 6 52 17 142 25 200 8 58 21 166
30 240 17 145 26 219 49 400 8 63 18 149 22 190 11 123 15 126 112 67z m265
-189 l37 -33 -14 -41 c-8 -23 -26 -83 -39 -135 -37 -143 -47 -129 -47 70 0
191 1 194 63 139z m182 -111 c2 -7 11 -151 19 -322 9 -170 21 -389 26 -485 13
-211 30 -589 30 -647 0 -36 -3 -43 -22 -47 -198 -40 -284 -54 -290 -48 -5 5
-7 269 -5 588 3 564 3 581 25 649 24 77 69 239 83 299 6 21 14 47 20 57 9 18
12 18 60 -6 27 -14 52 -31 54 -38z m-2592 -262 c48 -155 92 -298 113 -360 13
-38 51 -158 84 -265 34 -107 67 -213 75 -235 7 -22 32 -101 55 -175 23 -74 55
-175 71 -225 59 -180 80 -255 74 -265 -3 -5 -25 -10 -48 -10 -23 0 -71 -5
-106 -11 -51 -8 -67 -7 -76 3 -7 7 -22 74 -34 148 -12 74 -26 155 -31 180 -5
25 -16 90 -25 145 -9 55 -25 147 -36 205 -10 58 -23 134 -28 170 -15 99 -98
580 -121 699 -5 29 -7 58 -4 63 9 14 18 -3 37 -67z m3581 -611 c31 -153 62
-313 71 -354 14 -68 14 -76 0 -86 -22 -16 -166 -37 -177 -26 -6 6 -5 84 1 188
6 99 16 262 22 364 10 169 14 208 25 198 2 -2 28 -130 58 -284z m-1321 -694
c-14 -11 -202 -42 -219 -36 -11 4 -14 12 -9 24 7 16 18 55 73 262 20 76 48
177 83 305 11 39 26 98 35 133 35 148 39 123 42 -290 1 -215 -1 -395 -5 -398z
m781 300 c10 -52 19 -105 22 -116 5 -27 -17 -47 -47 -42 -22 3 -22 5 -20 128
4 178 17 187 45 30z m-1975 -367 c-7 -10 -32 -37 -54 -59 -37 -37 -49 -42
-104 -49 -111 -13 -95 21 40 82 105 47 140 54 118 26z m280 -37 l22 -23 -58
-6 c-32 -4 -73 -9 -90 -13 -52 -10 -40 14 20 41 65 31 78 31 106 1z"/>
<path d="M7147 5153 c-4 -65 -3 -131 2 -148 6 -22 9 10 13 110 3 77 2 144 -2
148 -4 4 -10 -45 -13 -110z"/>
<path d="M6932 4370 c0 -14 2 -19 5 -12 2 6 2 18 0 25 -3 6 -5 1 -5 -13z"/>
</g>
</svg>
