<?xml version="1.0" standalone="no"?>
<!DOCTYPE svg PUBLIC "-//W3C//DTD SVG 20010904//EN"
 "http://www.w3.org/TR/2001/REC-SVG-20010904/DTD/svg10.dtd">
<svg version="1.0" xmlns="http://www.w3.org/2000/svg"
 width="429.000000pt" height="570.000000pt" viewBox="0 0 429.000000 570.000000"
 preserveAspectRatio="xMidYMid meet">

<g transform="translate(0.000000,570.000000) scale(0.100000,-0.100000)"
fill="#000000" stroke="none">
<path d="M10 4777 c0 -18 111 -351 121 -363 5 -7 30 -15 54 -19 l45 -6 0 -79
0 -78 68 -16 c84 -19 321 -53 427 -61 129 -10 125 -8 125 -65 0 -49 1 -50 30
-50 l30 0 0 -105 0 -105 -59 0 -60 0 -3 -37 -3 -38 -257 -3 -258 -2 0 -155 0
-155 310 0 c284 0 311 -1 317 -17 7 -18 -34 -1969 -43 -2080 -3 -35 -9 -63
-14 -63 -18 0 -72 -54 -91 -91 -10 -22 -22 -59 -26 -84 l-6 -45 -198 0 -199 0
0 -75 0 -75 755 0 756 0 -3 73 -3 72 -192 3 -193 2 0 28 c0 52 -30 120 -69
155 -21 19 -43 36 -49 38 -17 6 -70 2135 -54 2151 7 7 307 8 887 3 l877 -8 -6
-271 c-41 -1663 -47 -1871 -58 -1875 -6 -2 -28 -19 -49 -38 -39 -35 -69 -103
-69 -155 l0 -28 -192 -2 -193 -3 -3 -73 -3 -72 758 2 758 3 0 70 0 70 -201 3
-201 2 -6 45 c-11 75 -67 160 -117 177 -8 2 -13 57 -16 158 -12 381 -44 1754
-44 1866 l0 124 313 2 312 3 3 157 3 158 -258 2 -258 3 -3 38 -3 37 -60 0 -59
0 0 105 0 105 30 0 c29 0 30 1 30 50 0 58 -11 54 170 70 125 11 328 42 408 62
l42 10 0 79 0 78 45 6 c24 4 49 12 54 19 10 12 121 345 121 363 0 7 -21 3 -58
-12 -278 -113 -945 -197 -1705 -214 -798 -18 -1573 24 -2032 110 -170 31 -347
75 -414 103 -38 15 -61 20 -61 13z m1968 -673 c10 -3 12 -43 10 -176 l-3 -173
-305 0 -305 0 -3 38 -3 37 -60 0 -59 0 0 104 0 105 33 3 c29 3 32 6 35 40 l3
37 322 -5 c177 -3 328 -7 335 -10z m994 -21 c3 -35 6 -38 36 -41 l32 -3 0
-105 0 -104 -59 0 -60 0 -3 -37 -3 -38 -305 0 -305 0 0 175 0 175 240 5 c132
3 281 7 332 8 l92 2 3 -37z"/>
</g>
</svg>
