<?xml version="1.0" standalone="no"?>
<!DOCTYPE svg PUBLIC "-//W3C//DTD SVG 20010904//EN"
 "http://www.w3.org/TR/2001/REC-SVG-20010904/DTD/svg10.dtd">
<svg version="1.0" xmlns="http://www.w3.org/2000/svg"
 width="2801.000000pt" height="2801.000000pt" viewBox="0 0 2801.000000 2801.000000"
 preserveAspectRatio="xMidYMid meet">

<g transform="translate(0.000000,2801.000000) scale(0.100000,-0.100000)"
fill="#000000" stroke="none">
<path d="M9604 27971 c-114 -55 -415 -220 -569 -312 -682 -406 -1204 -886
-1735 -1599 -188 -253 -280 -404 -280 -461 0 -36 22 -51 87 -60 104 -14 215
-89 378 -254 280 -284 468 -671 965 -1995 619 -1646 968 -2345 1542 -3086 90
-115 176 -230 193 -253 l30 -44 -39 -71 c-22 -39 -98 -165 -169 -281 -325
-523 -445 -775 -637 -1340 -307 -904 -421 -1473 -720 -3605 -198 -1405 -278
-1875 -401 -2350 -126 -486 -372 -1045 -582 -1320 -23 -30 -89 -106 -147 -170
-58 -63 -111 -123 -118 -132 -10 -12 36 -3 195 37 694 178 1561 286 2918 365
774 45 1042 62 1295 80 375 27 524 42 508 50 -7 4 -95 31 -195 59 -429 121
-825 293 -877 382 -14 24 -16 47 -10 156 5 103 3 141 -10 192 -47 184 -175
327 -349 389 -101 37 -241 37 -338 0 -41 -15 -74 -22 -86 -17 -76 28 -305 373
-455 685 -248 519 -385 1231 -405 2109 -9 399 12 747 73 1201 27 210 34 243
49 245 16 3 80 -124 131 -261 174 -468 356 -829 609 -1206 490 -730 1132
-1317 1821 -1662 344 -173 704 -280 1168 -347 80 -12 81 -17 81 -415 0 -391
-1 -399 -93 -526 -83 -115 -96 -166 -96 -369 -1 -206 9 -236 110 -349 108
-121 127 -165 132 -303 l5 -113 -29 0 c-69 0 -1425 -41 -1669 -50 -1626 -62
-2313 -157 -3427 -475 -601 -172 -885 -287 -963 -389 -43 -57 -179 -300 -320
-574 -88 -171 -134 -250 -143 -247 -8 3 -244 155 -525 338 -692 451 -910 587
-944 587 -35 0 -315 -472 -883 -1490 -345 -618 -574 -1017 -648 -1128 -8 -12
-15 -11 -43 3 -55 28 -69 45 -69 85 0 48 67 183 210 425 227 383 238 425 131
517 -64 55 -849 461 -916 474 l-30 6 -49 -124 c-96 -243 -412 -1055 -656
-1684 -410 -1056 -463 -1184 -495 -1184 -27 0 -27 26 -1 123 37 136 99 312
263 752 140 375 253 694 253 715 0 56 -911 471 -1004 458 -17 -2 -34 -34 -84
-158 -147 -364 -424 -1072 -1084 -2780 -248 -641 -452 -1170 -455 -1177 -19
-50 499 -221 3692 -1222 1386 -434 3355 -1051 4375 -1371 4182 -1311 4328
-1352 5000 -1426 196 -21 802 -29 1205 -15 1037 36 1179 69 3870 911 957 299
1667 522 1980 620 138 43 403 127 590 185 187 59 453 142 590 185 866 272
1190 373 2060 645 2826 884 3306 1034 3935 1231 377 119 692 222 700 230 12
12 11 17 -12 41 -34 37 -53 75 -159 331 -285 683 -937 2348 -1295 3306 -132
354 -173 443 -219 472 -17 11 -32 9 -100 -15 -155 -54 -560 -225 -829 -350
-86 -40 -88 -42 -83 -70 10 -47 98 -298 252 -711 197 -530 292 -822 283 -868
-5 -26 -29 18 -111 204 -116 261 -273 650 -542 1344 -376 969 -560 1420 -579
1420 -17 0 -220 -97 -391 -187 -406 -214 -625 -343 -625 -369 0 -19 70 -157
175 -344 166 -296 233 -425 251 -482 16 -53 16 -58 0 -83 -46 -70 -109 -52
-180 54 -25 36 -207 361 -406 721 -464 839 -527 951 -676 1207 -197 337 -340
558 -369 569 -16 7 -76 -24 -252 -127 -323 -190 -935 -576 -1138 -717 -49 -34
-99 -62 -111 -62 -34 0 -55 28 -120 163 -191 397 -312 607 -394 681 -75 68
-176 102 -686 235 -1559 406 -2644 541 -4909 611 -532 17 -993 42 -1075 59
-32 7 -33 8 -15 18 124 67 1497 66 2750 -2 1154 -63 2006 -143 2615 -245 166
-28 231 -41 635 -125 159 -33 255 -44 255 -29 0 4 -30 34 -67 68 -157 143
-387 514 -528 849 -108 259 -233 701 -319 1130 -89 438 -153 843 -306 1917
-106 744 -183 1258 -256 1700 -201 1218 -554 2293 -1005 3065 -45 77 -155 248
-245 381 l-163 241 96 119 c313 389 508 692 754 1169 257 499 489 1047 835
1970 484 1288 692 1724 958 2004 114 119 220 190 386 257 132 53 134 61 60
183 -258 425 -924 1175 -1315 1480 -203 159 -614 431 -930 616 -161 95 -359
195 -383 195 -20 0 -13 -67 39 -365 54 -312 75 -468 93 -675 56 -631 73 -1773
31 -2080 -221 -1636 -990 -2738 -2304 -3300 -436 -186 -943 -326 -1381 -382
-165 -21 -661 -18 -830 5 -835 113 -1719 481 -2280 950 -613 513 -1016 1182
-1234 2055 -123 490 -158 835 -158 1532 0 771 60 1474 169 1980 38 179 51 280
36 280 -5 0 -45 -17 -89 -39z m8275 -1386 c0 -38 -4 -79 -8 -90 -7 -16 -9 -14
-14 14 -4 19 -7 53 -7 76 0 23 3 57 7 76 5 28 7 30 14 14 4 -11 8 -51 8 -90z
m55 -480 c49 -479 44 -1271 -10 -1700 -116 -928 -416 -1697 -895 -2300 -125
-158 -384 -419 -534 -539 -497 -397 -1145 -685 -1801 -800 -252 -44 -751 -96
-924 -96 l-40 0 5 88 c9 126 14 150 36 171 24 22 39 25 214 45 512 59 1220
267 1690 496 530 259 1022 680 1361 1165 507 727 787 1683 844 2885 5 118 13
336 16 483 3 148 10 265 14 260 5 -4 15 -75 24 -158z m-7185 -6702 c25 -14
147 -92 271 -173 251 -163 330 -210 506 -298 474 -237 1046 -413 1669 -513 77
-12 143 -25 147 -28 6 -6 30 -347 43 -601 9 -187 24 -686 45 -1495 22 -827 33
-1188 55 -1770 8 -209 15 -395 15 -412 l0 -33 -77 0 c-507 1 -1221 223 -1762
549 -438 265 -844 620 -1170 1026 -255 317 -400 557 -608 1009 l-123 268 61
232 c217 826 410 1351 749 2039 61 125 117 227 122 227 6 0 32 -12 57 -27z
m6551 -2776 c0 -33 -49 -127 -96 -183 l-24 -29 19 50 c32 83 87 195 96 195 3
0 5 -15 5 -33z m-206 -399 c-76 -152 -139 -256 -241 -395 -493 -676 -1340
-1308 -2105 -1572 -261 -90 -600 -159 -825 -168 -220 -9 -261 21 -123 89 75
37 150 58 563 159 358 87 601 175 922 334 237 117 403 212 570 326 466 317
865 721 1215 1232 41 59 75 107 77 107 2 0 -22 -51 -53 -112z m-462 -3716 c56
-28 104 -93 148 -204 32 -81 38 -118 18 -118 -7 0 -48 38 -93 84 -63 65 -91
87 -129 100 -218 72 -498 -96 -596 -359 -48 -130 -36 -296 31 -403 56 -91 13
-77 -92 30 -101 103 -146 208 -136 322 16 194 182 412 395 520 85 43 154 56
287 53 101 -2 128 -6 167 -25z m-2761 -235 c168 -75 250 -228 236 -436 -7 -97
-36 -209 -73 -282 -25 -51 -124 -168 -124 -148 0 6 20 73 44 149 65 202 72
244 52 330 -34 153 -124 303 -204 340 -55 26 -94 59 -85 73 9 15 94 1 154 -26z
m-165 -2803 c83 -34 291 -182 594 -419 217 -170 332 -254 505 -368 461 -303
875 -477 1270 -532 156 -22 425 -15 567 14 136 28 351 102 482 165 238 115
420 257 662 514 87 92 160 168 163 169 3 1 67 -44 141 -100 163 -124 187 -156
196 -268 4 -42 3 -98 -1 -125 l-7 -49 -27 91 c-31 102 -59 155 -127 239 -42
51 -123 115 -146 115 -19 0 -38 -75 -63 -246 -15 -98 -38 -230 -51 -293 -127
-592 -417 -1082 -794 -1340 -111 -76 -188 -114 -328 -162 -117 -41 -186 -72
-196 -88 -10 -15 63 -103 245 -298 360 -383 605 -582 751 -607 139 -25 310
156 441 465 168 396 265 891 316 1619 18 259 19 262 20 130 1 -183 -16 -588
-34 -793 -28 -319 -55 -458 -138 -702 -113 -331 -258 -636 -356 -747 -38 -42
-39 -43 -114 -46 -91 -5 -165 17 -278 81 -254 145 -585 464 -1094 1057 -528
615 -903 964 -1191 1108 -166 83 -287 93 -390 31 -159 -96 -255 -295 -293
-609 -13 -103 -43 -531 -38 -536 2 -2 14 38 27 89 113 448 220 627 374 627
160 0 350 -222 430 -502 39 -134 49 -242 43 -433 -6 -195 -26 -303 -89 -492
-71 -214 -126 -276 -178 -202 -30 41 -75 59 -148 59 -52 0 -66 -5 -118 -39
-68 -44 -191 -169 -391 -396 -224 -254 -371 -390 -467 -430 -61 -26 -189 -54
-295 -65 -185 -20 -405 17 -558 92 -110 55 -163 106 -301 290 -277 371 -468
532 -626 533 -42 0 -78 -7 -115 -23 -80 -35 -93 -28 -145 81 -25 50 -54 126
-65 167 -83 305 -75 795 16 1036 44 115 164 250 266 297 114 53 178 44 253
-36 79 -84 148 -238 205 -457 l12 -45 9 35 c6 20 8 129 5 250 -5 255 -18 317
-98 470 -182 349 -361 330 -815 -88 -149 -137 -378 -377 -769 -807 -405 -445
-607 -657 -764 -800 -239 -217 -406 -324 -541 -346 -137 -23 -198 22 -298 217
-212 418 -342 838 -397 1289 -44 362 -45 1034 -1 1280 31 175 73 238 236 355
l101 72 172 -174 c262 -264 433 -392 702 -523 255 -125 459 -181 695 -192 402
-18 833 114 1335 408 210 123 457 292 811 556 294 219 495 363 507 363 13 0
26 -256 53 -965 20 -537 13 -664 -39 -700 -32 -22 -66 -19 -190 21 -175 56
-286 125 -443 276 -105 101 -170 188 -229 306 -25 51 -49 92 -54 92 -26 0 33
-201 92 -315 115 -222 370 -477 580 -579 77 -38 172 -66 223 -66 40 0 62 -25
74 -86 5 -27 13 -199 16 -382 4 -182 9 -331 10 -329 2 2 13 160 24 353 12 192
23 363 26 381 5 31 7 33 132 73 213 69 316 128 458 263 108 102 198 221 268
357 61 118 120 264 132 325 7 40 7 40 -14 22 -11 -11 -47 -69 -79 -130 -32
-62 -83 -143 -114 -182 -140 -176 -340 -325 -516 -386 -72 -24 -165 -34 -191
-20 -45 24 -47 53 -46 791 0 643 7 865 29 900 9 15 47 12 91 -6z m4621 -1186
c-3 -7 -5 -2 -5 12 0 14 2 19 5 13 2 -7 2 -19 0 -25z m-2851 -1526 c131 -96
381 -435 432 -587 122 -363 -65 -1148 -414 -1741 -78 -134 -130 -186 -229
-234 -227 -110 -671 -208 -713 -157 -8 10 16 61 99 207 123 218 189 349 256
513 189 461 335 1020 423 1612 42 283 73 415 99 415 4 0 26 -13 47 -28z
m-3854 -159 c10 -28 22 -109 28 -180 27 -341 282 -1341 427 -1682 61 -142 170
-360 237 -470 115 -188 118 -201 46 -201 -58 0 -259 40 -380 76 -226 68 -332
184 -489 536 -145 326 -252 630 -298 847 -24 111 -27 149 -28 316 0 155 3 203
19 260 52 195 191 417 320 512 77 57 96 54 118 -14z m-378 -2362 c3 -5 -30
-19 -75 -31 -225 -61 -275 -120 -273 -325 4 -321 190 -966 396 -1367 70 -137
179 -299 251 -372 81 -82 134 -109 212 -109 72 0 111 18 305 143 435 280 708
400 1030 456 128 22 546 30 767 15 518 -36 774 -121 1184 -392 224 -149 374
-229 427 -229 89 0 258 146 382 332 143 214 285 583 384 998 62 262 70 325 68
543 0 109 -4 206 -7 216 -4 13 -55 31 -198 72 l-192 54 170 3 c253 5 313 -15
352 -116 36 -94 16 -434 -43 -727 -119 -587 -383 -1258 -656 -1668 -49 -74
-220 -298 -263 -345 -9 -11 -36 26 -133 180 -66 106 -150 229 -185 273 -255
318 -608 502 -1094 572 -105 15 -190 18 -468 18 -466 -1 -594 -21 -861 -135
-250 -107 -489 -254 -591 -363 -71 -76 -165 -226 -265 -424 -40 -78 -76 -143
-79 -143 -13 0 -241 284 -302 377 -279 424 -560 1163 -672 1768 -53 290 -68
516 -40 611 30 101 82 122 307 123 86 1 159 -3 162 -8z m2671 -2511 c366 -31
604 -93 767 -200 93 -61 151 -124 191 -209 26 -55 31 -77 31 -142 0 -69 -4
-86 -37 -153 -25 -50 -62 -101 -112 -154 l-75 -80 -169 64 c-93 35 -213 72
-268 83 -332 67 -858 78 -1190 26 -105 -17 -202 -46 -364 -110 -62 -25 -124
-45 -136 -45 -54 0 -165 140 -202 253 -31 97 -35 147 -16 212 26 92 79 163
170 233 162 122 419 189 870 225 97 8 430 6 540 -3z"/>
<path d="M7316 15014 c-107 -21 -598 -73 -2036 -214 -851 -83 -1505 -162
-1526 -183 -22 -22 363 -733 624 -1152 365 -587 834 -1112 1315 -1473 499
-375 1043 -614 1620 -712 129 -22 299 -26 344 -9 63 24 122 110 234 343 79
165 139 351 229 708 l73 287 -91 158 c-179 314 -340 667 -489 1078 -130 358
-183 649 -183 1018 0 192 12 176 -114 151z"/>
<path d="M19947 14807 c-5 -252 -22 -373 -89 -632 -107 -420 -285 -848 -561
-1347 l-114 -207 42 -190 c120 -527 243 -861 407 -1103 64 -96 91 -101 314
-69 353 52 941 245 1252 412 765 408 1521 1239 2117 2324 150 273 305 596 305
635 0 13 -12 19 -52 23 -199 23 -636 67 -1358 137 -1075 103 -1479 143 -1828
180 -247 27 -311 35 -408 55 -21 5 -22 3 -27 -218z m588 -37 c160 -16 670 -66
1135 -110 1240 -117 1534 -149 1698 -181 l52 -10 -96 -107 c-53 -59 -104 -115
-113 -124 -16 -17 -40 -16 -496 32 -264 28 -676 71 -915 96 -443 46 -1141 124
-1306 146 -134 17 -136 15 -210 -187 -69 -189 -259 -620 -390 -885 -179 -362
-370 -699 -419 -740 -32 -26 -14 20 72 186 269 520 394 850 496 1314 21 91 97
573 97 609 0 4 24 4 53 -1 28 -4 183 -22 342 -38z"/>
</g>
</svg>
