<?xml version="1.0" standalone="no"?>
<!DOCTYPE svg PUBLIC "-//W3C//DTD SVG 20010904//EN"
 "http://www.w3.org/TR/2001/REC-SVG-20010904/DTD/svg10.dtd">
<svg version="1.0" xmlns="http://www.w3.org/2000/svg"
 width="1373.000000pt" height="405.000000pt" viewBox="0 0 1373.000000 405.000000"
 preserveAspectRatio="xMidYMid meet">

<g transform="translate(0.000000,405.000000) scale(0.100000,-0.100000)"
fill="#000000" stroke="none">
<path d="M256 4035 c-168 -60 -269 -305 -252 -615 13 -259 59 -365 332 -780
143 -218 193 -310 224 -420 30 -104 38 -268 17 -341 -18 -59 -64 -115 -104
-125 -44 -11 -96 4 -125 35 -48 54 -60 115 -65 349 l-6 212 -128 0 -129 0 0
-435 0 -435 130 0 130 0 0 36 0 36 35 -31 c119 -104 271 -106 384 -5 134 120
201 330 188 588 -14 275 -102 493 -344 852 -160 240 -206 324 -234 432 -23 89
-25 227 -5 276 43 103 172 102 219 -2 19 -41 22 -71 27 -227 l5 -180 128 -3
127 -3 0 381 0 381 -127 -3 -128 -3 -3 -33 -3 -33 -20 25 c-11 13 -47 38 -81
55 -68 35 -127 39 -192 16z"/>
<path d="M5123 4036 c-188 -61 -313 -298 -373 -706 -51 -353 -49 -899 7 -1255
50 -327 155 -530 310 -603 79 -37 202 -38 280 -3 98 44 199 178 254 340 31 88
67 278 85 442 24 216 24 742 0 959 -49 449 -163 717 -341 808 -60 30 -159 39
-222 18z m127 -331 c96 -50 122 -256 122 -970 0 -705 -27 -904 -128 -952 -33
-16 -37 -16 -69 2 -48 25 -81 97 -101 220 -22 131 -32 1033 -15 1290 18 265
51 383 115 411 40 17 41 17 76 -1z"/>
<path d="M13134 4032 c-285 -99 -426 -643 -393 -1515 23 -620 131 -942 349
-1046 47 -22 69 -26 145 -26 96 0 135 14 213 73 82 62 171 246 213 437 96 435
91 1203 -11 1600 -98 380 -288 556 -516 477z m168 -352 c30 -33 53 -100 68
-205 19 -133 32 -616 26 -930 -9 -439 -27 -609 -75 -703 -26 -51 -46 -66 -87
-66 -73 0 -120 87 -145 269 -6 44 -13 297 -16 561 -7 643 11 924 65 1031 45
87 108 104 164 43z"/>
<path d="M1060 3855 l0 -155 80 0 79 0 4 -927 c3 -1017 0 -961 63 -1092 41
-83 144 -182 219 -210 224 -84 459 10 559 223 36 78 57 178 67 316 4 69 8 477
9 907 l0 782 78 3 77 3 0 150 0 150 -267 3 -268 2 0 -155 0 -155 55 0 55 0 0
-878 c0 -760 -2 -886 -15 -937 -24 -91 -76 -135 -157 -135 -101 0 -151 64
-168 215 -6 53 -10 425 -10 913 l0 822 60 0 60 0 0 155 0 155 -290 0 -290 0 0
-155z"/>
<path d="M2414 3997 c-2 -7 -3 -76 -2 -152 l3 -140 78 -3 77 -3 0 -954 0 -954
-77 -3 -78 -3 0 -150 0 -150 493 -3 492 -2 0 390 0 390 -125 0 -125 0 0 -235
0 -235 -135 0 -135 0 0 420 0 419 108 3 107 3 0 150 0 150 -107 3 -108 3 0
379 0 380 135 0 135 0 0 -215 0 -215 125 0 125 0 0 370 0 370 -490 0 c-393 0
-492 -3 -496 -13z"/>
<path d="M3580 3855 l0 -155 75 0 75 0 0 -955 0 -955 -75 0 -75 0 0 -155 0
-155 490 0 490 0 0 550 0 550 -130 0 -130 0 0 -395 0 -395 -130 0 -130 0 0
955 0 955 80 0 80 0 0 155 0 155 -310 0 -310 0 0 -155z"/>
<path d="M6872 3858 l3 -153 73 -3 72 -3 0 -954 0 -954 -72 -3 -73 -3 -3 -153
-3 -152 278 2 278 3 0 150 0 150 -72 3 -73 3 0 437 c0 240 -5 588 -11 772 -6
184 -9 351 -7 370 2 24 15 -24 41 -150 97 -469 158 -722 291 -1210 l143 -525
122 -3 121 -3 0 1111 0 1110 70 0 70 0 0 155 0 155 -275 0 -275 0 0 -155 0
-155 75 0 75 0 0 -326 c0 -179 7 -481 16 -671 8 -190 13 -347 11 -349 -2 -3
-37 161 -77 363 -55 284 -99 469 -191 813 -66 245 -122 453 -125 463 -5 16
-25 17 -245 17 l-240 0 3 -152z"/>
<path d="M8420 3855 l0 -155 76 0 77 0 -5 -32 c-3 -18 -57 -448 -119 -955
l-113 -923 -68 0 -68 0 0 -155 0 -155 288 2 287 3 0 150 0 150 -67 3 c-38 2
-68 7 -68 11 0 4 11 127 25 272 14 145 25 270 25 277 0 9 33 12 130 12 97 0
130 -3 130 -12 0 -7 11 -132 25 -278 14 -146 25 -268 25 -272 0 -4 -30 -8 -67
-10 l-68 -3 -3 -152 -3 -153 291 0 290 0 0 155 0 155 -68 0 -68 0 -113 918
c-62 504 -115 934 -118 955 l-6 37 77 0 76 0 0 155 0 155 -400 0 -400 0 0
-155z m420 -85 c0 -27 78 -995 85 -1052 l6 -48 -111 0 -111 0 6 48 c6 54 85
1029 85 1055 0 10 8 17 20 17 13 0 20 -7 20 -20z"/>
<path d="M9470 3545 l0 -465 115 0 115 0 0 330 0 330 90 0 90 0 0 -975 0 -975
-85 0 -85 0 0 -155 0 -155 320 0 320 0 0 155 0 155 -85 0 -85 0 0 975 0 975
95 0 95 0 0 -330 0 -330 110 0 110 0 0 465 0 465 -560 0 -560 0 0 -465z"/>
<path d="M10720 3855 l0 -155 80 0 80 0 0 -955 0 -955 -80 0 -80 0 0 -155 0
-155 315 0 315 0 0 155 0 155 -80 0 -80 0 0 955 0 955 80 0 80 0 0 155 0 155
-315 0 -315 0 0 -155z"/>
<path d="M11450 3855 l0 -155 73 0 72 0 180 -1120 179 -1120 117 0 116 0 21
133 c12 72 90 576 174 1120 l152 987 78 0 78 0 0 155 0 155 -282 -2 -283 -3 0
-150 0 -150 73 -3 c71 -3 74 -4 69 -25 -12 -48 -80 -518 -112 -772 -34 -270
-50 -433 -63 -640 l-8 -110 -7 140 c-16 279 -70 725 -142 1173 -19 118 -35
218 -35 223 0 5 32 9 70 9 l70 0 0 155 0 155 -295 0 -295 0 0 -155z"/>
<path d="M670 1033 c-28 -10 -72 -58 -95 -103 -41 -82 -50 -143 -50 -345 0
-242 17 -317 87 -391 l30 -32 -31 -18 c-36 -21 -36 -22 -16 -51 13 -19 19 -21
46 -11 27 9 41 5 125 -36 51 -26 103 -46 115 -44 16 2 25 15 35 48 8 25 14 46
14 47 0 1 -17 4 -37 8 -21 3 -53 14 -72 24 l-34 18 30 21 c38 27 79 103 100
188 24 98 24 383 0 473 -38 140 -101 212 -187 210 -25 0 -52 -3 -60 -6z m80
-113 c30 -16 40 -71 46 -255 9 -240 -11 -393 -53 -409 -21 -9 -52 12 -65 42
-16 37 -23 441 -10 526 10 63 32 106 54 106 5 0 18 -5 28 -10z"/>
<path d="M4234 1030 c-28 -11 -81 -73 -100 -118 -34 -81 -46 -189 -42 -372 4
-141 9 -187 26 -238 36 -112 93 -162 182 -162 114 0 178 102 201 318 26 257
-25 493 -121 558 -36 25 -103 32 -146 14z m90 -115 c29 -30 38 -98 40 -300 1
-237 -7 -305 -38 -342 -23 -26 -24 -26 -49 -10 -18 11 -28 31 -36 67 -14 64
-14 460 0 520 16 71 50 98 83 65z"/>
<path d="M5130 1018 c-82 -56 -114 -194 -108 -468 5 -204 21 -277 73 -346 50
-66 151 -85 216 -41 62 42 93 106 105 218 l6 55 -52 12 c-29 7 -54 11 -55 10
-2 -2 -7 -39 -13 -83 -9 -67 -15 -84 -37 -102 -32 -28 -37 -28 -65 -5 -32 26
-39 82 -39 332 -1 261 3 296 35 317 49 32 89 -13 102 -115 l7 -57 53 -3 52 -3
0 145 0 146 -55 0 c-50 0 -55 -2 -56 -22 0 -13 -3 -17 -6 -10 -8 20 -59 42
-96 42 -19 0 -49 -10 -67 -22z"/>
<path d="M5654 1021 c-99 -60 -141 -219 -131 -495 6 -166 20 -234 64 -304 63
-101 191 -112 266 -23 115 138 116 627 1 778 -14 18 -38 40 -54 48 -40 21
-109 19 -146 -4z m105 -110 c11 -11 23 -41 28 -68 13 -76 9 -481 -5 -530 -22
-76 -78 -79 -104 -6 -15 42 -19 506 -5 556 8 29 40 67 57 67 6 0 19 -9 29 -19z"/>
<path d="M10 975 c0 -54 0 -55 30 -55 l30 0 0 -330 0 -330 -30 0 c-30 0 -30
-1 -30 -55 l0 -55 210 0 210 0 0 135 0 135 -55 0 -55 0 0 -80 0 -80 -60 0 -60
0 0 145 0 145 51 0 50 0 -3 53 -3 52 -47 3 -48 3 0 130 0 129 60 0 60 0 0 -75
0 -75 55 0 55 0 0 130 0 130 -210 0 -210 0 0 -55z"/>
<path d="M980 975 l0 -55 35 0 35 0 0 -320 c0 -355 1 -363 63 -417 91 -80 249
-48 298 61 17 37 19 70 19 359 l0 317 35 0 35 0 0 55 0 55 -110 0 -110 0 0
-55 c0 -48 2 -55 20 -55 20 0 20 -7 20 -313 0 -355 0 -357 -70 -357 -70 0 -70
2 -70 357 0 306 0 313 20 313 18 0 20 7 20 55 l0 55 -120 0 -120 0 0 -55z"/>
<path d="M1550 975 l0 -55 35 0 35 0 0 -330 0 -330 -35 0 -35 0 0 -55 0 -55
135 0 135 0 0 55 0 55 -35 0 -35 0 0 330 0 330 35 0 35 0 0 55 0 55 -135 0
-135 0 0 -55z"/>
<path d="M1880 975 c0 -54 0 -55 30 -55 l30 0 0 -330 0 -330 -30 0 c-30 0 -30
-1 -30 -55 l0 -55 205 0 205 0 0 190 0 190 -55 0 -55 0 0 -135 0 -135 -55 0
-55 0 0 330 0 330 35 0 35 0 0 55 0 55 -130 0 -130 0 0 -55z"/>
<path d="M2340 975 l0 -55 35 0 35 0 0 -330 0 -330 -35 0 -35 0 0 -55 0 -56
133 3 132 3 0 50 c0 49 -1 50 -32 53 l-33 3 0 329 0 329 33 3 c31 3 32 4 35
56 l3 52 -135 0 -136 0 0 -55z"/>
<path d="M2660 975 l0 -55 35 0 35 0 0 -330 0 -330 -35 0 -35 0 0 -56 0 -56
143 4 c189 6 247 31 299 133 26 49 29 162 6 215 -20 46 -73 97 -111 106 l-29
6 38 18 c69 31 95 78 96 170 1 79 -17 124 -68 169 -56 49 -106 61 -259 61
l-115 0 0 -55z m280 -73 c44 -36 46 -171 3 -213 -10 -9 -33 -20 -50 -24 l-33
-7 0 131 0 131 29 0 c16 0 39 -8 51 -18z m2 -363 c35 -19 50 -67 46 -145 -3
-63 -7 -78 -29 -99 -14 -14 -42 -28 -62 -32 l-37 -6 0 152 0 153 33 -7 c17 -4
40 -11 49 -16z"/>
<path d="M3180 975 l0 -55 40 0 40 0 0 -330 0 -330 -40 0 -40 0 0 -55 0 -55
135 0 135 0 0 55 c0 54 0 55 -30 55 l-30 0 0 145 0 145 25 0 c20 0 26 -7 35
-42 6 -24 24 -88 40 -143 15 -55 35 -126 44 -158 l17 -57 74 0 75 0 0 54 c0
52 -1 55 -27 58 -25 3 -29 11 -75 163 l-48 159 30 24 c51 40 74 96 74 182 0
88 -23 143 -78 185 -56 43 -115 55 -263 55 l-133 0 0 -55z m291 -70 c16 -9 34
-27 39 -41 14 -35 12 -118 -2 -149 -14 -30 -55 -55 -93 -55 l-25 0 0 130 0
130 25 0 c15 0 39 -7 56 -15z"/>
<path d="M3742 978 c3 -52 4 -53 36 -56 l32 -3 0 -329 0 -329 -32 -3 c-32 -3
-33 -4 -33 -53 l0 -50 133 -3 132 -3 0 56 0 55 -35 0 -35 0 0 330 0 330 35 0
35 0 0 55 0 55 -136 0 -135 0 3 -52z"/>
<path d="M6020 975 c0 -54 0 -55 30 -55 l30 0 0 -330 0 -330 -30 0 c-30 0 -30
-1 -30 -55 l0 -55 115 0 115 0 0 55 c0 54 -1 55 -29 55 l-29 0 -4 273 c-2 149
-3 273 -2 275 0 1 16 -57 35 -130 19 -73 63 -221 99 -328 l65 -195 53 -3 52
-3 0 385 0 386 30 0 c30 0 30 1 30 55 l0 55 -115 0 -115 0 0 -55 c0 -54 0 -55
30 -55 l30 0 0 -147 c0 -82 3 -186 6 -233 l5 -85 -40 150 c-22 83 -59 211 -83
285 l-44 135 -102 3 -102 3 0 -56z"/>
<path d="M7020 975 l0 -55 35 0 35 0 0 -330 0 -330 -35 0 -35 0 0 -55 0 -55
210 0 210 0 0 190 0 190 -55 0 -55 0 0 -135 0 -135 -55 0 -55 0 0 329 0 330
33 3 c31 3 32 4 32 53 l0 50 -132 3 -133 3 0 -56z"/>
<path d="M7570 975 c0 -54 0 -55 30 -55 17 0 30 -3 30 -7 1 -5 -21 -153 -47
-330 l-48 -323 -27 0 c-27 0 -28 -2 -28 -55 l0 -55 120 0 120 0 0 55 c0 54 -1
55 -29 55 -28 0 -29 2 -25 38 3 20 8 64 12 97 l7 60 55 0 55 0 10 -97 11 -98
-28 0 c-27 0 -28 -2 -28 -55 l0 -55 120 0 120 0 0 55 c0 54 -1 55 -28 55 l-28
0 -47 318 c-26 174 -47 323 -47 330 0 7 13 12 30 12 30 0 30 1 30 55 l0 55
-170 0 -170 0 0 -55z m189 -142 c7 -65 15 -153 18 -195 l6 -78 -40 0 c-22 0
-42 2 -44 5 -3 2 3 80 12 172 10 92 18 178 18 191 1 12 5 22 10 22 4 0 13 -53
20 -117z"/>
<path d="M8470 975 c0 -54 0 -55 30 -55 l30 0 0 -330 0 -330 -30 0 c-30 0 -30
-1 -30 -55 l0 -55 115 0 115 0 0 55 c0 54 -1 55 -29 55 l-29 0 -4 272 c-2 150
-3 274 -2 276 0 1 16 -57 35 -130 19 -73 63 -221 99 -328 l65 -195 53 -3 52
-3 0 385 0 386 30 0 c30 0 30 1 30 55 l0 55 -115 0 -115 0 0 -55 c0 -54 0 -55
30 -55 l30 0 0 -153 c0 -85 2 -190 5 -233 l5 -79 -39 150 c-22 83 -60 211 -84
285 l-44 135 -101 3 -102 3 0 -56z"/>
<path d="M9124 1016 c-3 -8 -4 -31 -2 -52 3 -36 6 -39 36 -42 27 -3 31 -7 27
-25 -5 -23 -95 -618 -95 -630 0 -4 -13 -7 -30 -7 -30 0 -30 -1 -30 -55 l0 -55
120 0 120 0 0 55 c0 53 -1 55 -26 55 l-26 0 6 68 c14 138 11 132 71 132 l53 0
6 -67 c4 -38 10 -83 13 -100 5 -31 4 -33 -26 -33 -31 0 -31 0 -31 -55 l0 -56
123 3 122 3 0 50 c0 47 -2 50 -27 53 -19 2 -30 10 -33 25 -4 21 -95 623 -95
633 0 2 14 4 30 4 30 0 30 1 30 55 l0 55 -165 0 c-132 0 -167 -3 -171 -14z
m196 -257 c11 -101 20 -187 20 -191 0 -5 -20 -8 -45 -8 -29 0 -45 4 -45 13 -1
25 32 353 36 366 10 30 16 -4 34 -180z"/>
<path d="M9570 870 l0 -160 50 0 50 0 0 115 0 115 35 0 35 0 0 -340 0 -340
-35 0 -35 0 0 -55 0 -55 135 0 135 0 0 55 0 55 -35 0 -35 0 0 341 0 340 38 -3
37 -3 3 -112 3 -113 44 0 45 0 0 160 0 160 -235 0 -235 0 0 -160z"/>
<path d="M10090 975 l0 -55 35 0 35 0 0 -317 c0 -359 3 -374 76 -429 34 -26
45 -29 114 -29 65 0 82 4 113 25 21 14 47 45 60 70 21 43 22 57 25 362 l3 317
32 3 c31 3 32 4 32 53 l0 50 -112 3 -113 3 0 -56 c0 -52 1 -55 25 -55 l25 0 0
-292 c0 -172 -4 -308 -11 -330 -11 -41 -33 -52 -85 -46 -51 6 -54 24 -54 361
l0 307 25 0 c24 0 25 3 25 55 l0 55 -125 0 -125 0 0 -55z"/>
<path d="M10660 975 l0 -55 35 0 35 0 0 -330 0 -330 -35 0 -35 0 0 -55 0 -55
135 0 135 0 0 55 0 55 -35 0 -35 0 0 145 0 145 28 0 c27 0 28 -2 82 -197 l55
-198 78 -3 77 -3 0 56 c0 54 -1 55 -28 55 -27 0 -29 3 -76 161 l-48 161 30 28
c50 45 72 100 72 178 0 83 -17 128 -67 177 -52 51 -111 65 -270 65 l-133 0 0
-55z m289 -70 c70 -36 67 -201 -5 -234 -14 -6 -38 -11 -54 -11 l-30 0 0 130 0
130 30 0 c17 0 44 -7 59 -15z"/>
<path d="M11310 975 c0 -54 0 -55 30 -55 17 0 30 -2 30 -4 0 -10 -91 -612 -95
-633 -3 -15 -14 -23 -33 -25 -25 -3 -27 -6 -27 -53 l0 -50 123 -3 122 -3 0 56
c0 55 0 55 -31 55 -30 0 -31 2 -26 33 3 17 9 62 13 100 l6 67 53 0 c60 0 57 6
71 -132 l6 -68 -26 0 c-25 0 -26 -2 -26 -55 l0 -55 120 0 120 0 0 55 c0 54 0
55 -30 55 -16 0 -30 3 -30 7 0 12 -90 607 -95 630 -4 18 0 22 27 25 32 3 33 4
33 53 l0 50 -167 3 -168 2 0 -55z m194 -215 c9 -96 16 -181 16 -187 0 -9 -16
-13 -46 -13 l-45 0 5 43 c3 23 10 94 16 157 22 244 30 244 54 0z"/>
<path d="M11790 975 l0 -55 35 0 35 0 0 -330 0 -330 -35 0 -35 0 0 -55 0 -55
210 0 210 0 0 190 0 190 -55 0 -55 0 0 -135 0 -135 -55 0 -55 0 0 330 0 330
30 0 c30 0 30 1 30 55 l0 55 -130 0 -130 0 0 -55z"/>
<path d="M12252 978 c3 -52 4 -53 36 -56 l32 -3 0 -330 0 -329 -35 0 -35 0 0
-55 0 -55 210 0 210 0 0 135 0 135 -55 0 -55 0 0 -80 0 -80 -55 0 -55 0 0 145
0 145 45 0 45 0 0 55 0 55 -45 0 -45 0 0 130 0 130 55 0 55 0 0 -75 0 -75 55
0 55 0 0 130 0 130 -211 0 -210 0 3 -52z"/>
<path d="M12760 885 l0 -145 55 0 55 0 0 90 0 90 50 0 c28 0 50 -4 50 -9 0 -6
-49 -153 -110 -329 -89 -259 -110 -329 -110 -375 l0 -57 180 0 180 0 0 145 0
145 -55 0 -55 0 0 -90 0 -90 -60 0 c-33 0 -60 1 -60 3 0 2 52 151 115 331 92
262 115 339 115 382 l0 54 -175 0 -175 0 0 -145z"/>
<path d="M13260 975 c0 -54 0 -55 30 -55 27 0 29 -3 25 -27 -7 -35 -95 -621
-95 -628 0 -3 -13 -5 -30 -5 -30 0 -30 -1 -30 -55 l0 -56 123 3 122 3 0 50 c0
48 -1 50 -29 53 l-28 4 6 66 c14 138 11 132 71 132 l53 0 6 -57 c4 -32 9 -77
13 -101 5 -42 5 -42 -26 -42 -31 0 -31 0 -31 -55 l0 -56 123 3 122 3 0 50 c0
47 -2 50 -27 53 -32 4 -26 -21 -78 327 -22 149 -43 285 -46 303 -6 30 -5 32
25 32 31 0 31 0 31 55 l0 55 -165 0 -165 0 0 -55z m190 -216 c11 -101 20 -187
20 -191 0 -5 -21 -8 -46 -8 l-47 0 6 53 c3 28 11 111 17 182 19 214 25 210 50
-36z"/>
</g>
</svg>
